<svg width="21" height="20" viewBox="0 0 21 20" fill="none" xmlns="http://www.w3.org/2000/svg">
<path opacity="0.4" d="M14.998 0H18.3864C19.7897 0 20.9268 1.14585 20.9268 2.55996V5.97453C20.9268 7.38864 19.7897 8.53449 18.3864 8.53449H14.998C13.5947 8.53449 12.4576 7.38864 12.4576 5.97453V2.55996C12.4576 1.14585 13.5947 0 14.998 0Z" fill="#090328"/>
<path fill-rule="evenodd" clip-rule="evenodd" d="M3.45259 0H6.84099C8.24427 0 9.38135 1.14585 9.38135 2.55996V5.97453C9.38135 7.38864 8.24427 8.53449 6.84099 8.53449H3.45259C2.04931 8.53449 0.912231 7.38864 0.912231 5.97453V2.55996C0.912231 1.14585 2.04931 0 3.45259 0ZM3.45259 11.4655H6.84099C8.24427 11.4655 9.38135 12.6114 9.38135 14.0255V17.44C9.38135 18.8532 8.24427 20 6.84099 20H3.45259C2.04931 20 0.912231 18.8532 0.912231 17.44V14.0255C0.912231 12.6114 2.04931 11.4655 3.45259 11.4655ZM18.3864 11.4655H14.998C13.5947 11.4655 12.4576 12.6114 12.4576 14.0255V17.44C12.4576 18.8532 13.5947 20 14.998 20H18.3864C19.7897 20 20.9268 18.8532 20.9268 17.44V14.0255C20.9268 12.6114 19.7897 11.4655 18.3864 11.4655Z" fill="#090328"/>
</svg>
