<svg width="128" height="26" viewBox="0 0 128 26" fill="none" xmlns="http://www.w3.org/2000/svg">
<path d="M19.568 2.152V19H15.464V8.896L11.696 19H8.384L4.592 8.872V19H0.488V2.152H5.336L10.064 13.816L14.744 2.152H19.568ZM36.1993 5.608L27.7993 25.36H23.3833L26.4553 18.544L21.0072 5.608H25.5913L28.6873 13.984L31.7593 5.608H36.1993ZM47.4993 2.272V4.048H40.2273V9.688H46.1313V11.464H40.2273V19H38.0433V2.272H47.4993ZM49.3211 12.376C49.3211 11.032 49.5931 9.856 50.1371 8.848C50.6811 7.824 51.4251 7.032 52.3691 6.472C53.3291 5.912 54.3931 5.632 55.5611 5.632C56.7131 5.632 57.7131 5.88 58.5611 6.376C59.4091 6.872 60.0411 7.496 60.4571 8.248V5.848H62.6651V19H60.4571V16.552C60.0251 17.32 59.3771 17.96 58.5131 18.472C57.6651 18.968 56.6731 19.216 55.5371 19.216C54.3691 19.216 53.3131 18.928 52.3691 18.352C51.4251 17.776 50.6811 16.968 50.1371 15.928C49.5931 14.888 49.3211 13.704 49.3211 12.376ZM60.4571 12.4C60.4571 11.408 60.2571 10.544 59.8571 9.808C59.4571 9.072 58.9131 8.512 58.2251 8.128C57.5531 7.728 56.8091 7.528 55.9931 7.528C55.1771 7.528 54.4331 7.72 53.7611 8.104C53.0891 8.488 52.5531 9.048 52.1531 9.784C51.7531 10.52 51.5531 11.384 51.5531 12.376C51.5531 13.384 51.7531 14.264 52.1531 15.016C52.5531 15.752 53.0891 16.32 53.7611 16.72C54.4331 17.104 55.1771 17.296 55.9931 17.296C56.8091 17.296 57.5531 17.104 58.2251 16.72C58.9131 16.32 59.4571 15.752 59.8571 15.016C60.2571 14.264 60.4571 13.392 60.4571 12.4ZM71.0118 19.216C70.0038 19.216 69.0998 19.048 68.2998 18.712C67.4998 18.36 66.8678 17.88 66.4038 17.272C65.9398 16.648 65.6838 15.936 65.6358 15.136H67.8918C67.9558 15.792 68.2598 16.328 68.8038 16.744C69.3638 17.16 70.0918 17.368 70.9878 17.368C71.8198 17.368 72.4758 17.184 72.9558 16.816C73.4358 16.448 73.6758 15.984 73.6758 15.424C73.6758 14.848 73.4198 14.424 72.9078 14.152C72.3958 13.864 71.6038 13.584 70.5318 13.312C69.5558 13.056 68.7558 12.8 68.1318 12.544C67.5238 12.272 66.9958 11.88 66.5478 11.368C66.1158 10.84 65.8998 10.152 65.8998 9.304C65.8998 8.632 66.0998 8.016 66.4998 7.456C66.8998 6.896 67.4678 6.456 68.2038 6.136C68.9398 5.8 69.7798 5.632 70.7238 5.632C72.1798 5.632 73.3558 6 74.2518 6.736C75.1478 7.472 75.6278 8.48 75.6918 9.76H73.5078C73.4598 9.072 73.1798 8.52 72.6678 8.104C72.1718 7.688 71.4998 7.48 70.6518 7.48C69.8678 7.48 69.2438 7.648 68.7798 7.984C68.3158 8.32 68.0838 8.76 68.0838 9.304C68.0838 9.736 68.2198 10.096 68.4918 10.384C68.7798 10.656 69.1318 10.88 69.5478 11.056C69.9798 11.216 70.5718 11.4 71.3238 11.608C72.2678 11.864 73.0358 12.12 73.6278 12.376C74.2198 12.616 74.7238 12.984 75.1398 13.48C75.5718 13.976 75.7958 14.624 75.8118 15.424C75.8118 16.144 75.6118 16.792 75.2118 17.368C74.8118 17.944 74.2438 18.4 73.5078 18.736C72.7878 19.056 71.9558 19.216 71.0118 19.216ZM85.4229 5.608C86.4149 5.608 87.3109 5.824 88.1109 6.256C88.9109 6.672 89.5349 7.304 89.9829 8.152C90.4469 9 90.6789 10.032 90.6789 11.248V19H88.5189V11.56C88.5189 10.248 88.1909 9.248 87.5349 8.56C86.8789 7.856 85.9829 7.504 84.8469 7.504C83.6949 7.504 82.7749 7.864 82.0869 8.584C81.4149 9.304 81.0789 10.352 81.0789 11.728V19H78.8949V1.24H81.0789V7.72C81.5109 7.048 82.1029 6.528 82.8549 6.16C83.6229 5.792 84.4789 5.608 85.4229 5.608ZM95.3744 3.712C94.9584 3.712 94.6064 3.568 94.3184 3.28C94.0304 2.992 93.8864 2.64 93.8864 2.224C93.8864 1.808 94.0304 1.456 94.3184 1.168C94.6064 0.879999 94.9584 0.735999 95.3744 0.735999C95.7744 0.735999 96.1104 0.879999 96.3824 1.168C96.6704 1.456 96.8144 1.808 96.8144 2.224C96.8144 2.64 96.6704 2.992 96.3824 3.28C96.1104 3.568 95.7744 3.712 95.3744 3.712ZM96.4304 5.848V19H94.2464V5.848H96.4304ZM105.889 19.216C104.657 19.216 103.537 18.936 102.529 18.376C101.537 17.816 100.753 17.024 100.177 16C99.6167 14.96 99.3367 13.76 99.3367 12.4C99.3367 11.056 99.6247 9.872 100.201 8.848C100.793 7.808 101.593 7.016 102.601 6.472C103.609 5.912 104.737 5.632 105.985 5.632C107.233 5.632 108.361 5.912 109.369 6.472C110.377 7.016 111.169 7.8 111.745 8.824C112.337 9.848 112.633 11.04 112.633 12.4C112.633 13.76 112.329 14.96 111.721 16C111.129 17.024 110.321 17.816 109.297 18.376C108.273 18.936 107.137 19.216 105.889 19.216ZM105.889 17.296C106.673 17.296 107.409 17.112 108.097 16.744C108.785 16.376 109.337 15.824 109.753 15.088C110.185 14.352 110.401 13.456 110.401 12.4C110.401 11.344 110.193 10.448 109.777 9.712C109.361 8.976 108.817 8.432 108.145 8.08C107.473 7.712 106.745 7.528 105.961 7.528C105.161 7.528 104.425 7.712 103.753 8.08C103.097 8.432 102.569 8.976 102.169 9.712C101.769 10.448 101.569 11.344 101.569 12.4C101.569 13.472 101.761 14.376 102.145 15.112C102.545 15.848 103.073 16.4 103.729 16.768C104.385 17.12 105.105 17.296 105.889 17.296ZM121.912 5.608C123.512 5.608 124.808 6.096 125.8 7.072C126.792 8.032 127.288 9.424 127.288 11.248V19H125.128V11.56C125.128 10.248 124.8 9.248 124.144 8.56C123.488 7.856 122.592 7.504 121.456 7.504C120.304 7.504 119.384 7.864 118.696 8.584C118.024 9.304 117.688 10.352 117.688 11.728V19H115.504V5.848H117.688V7.72C118.12 7.048 118.704 6.528 119.44 6.16C120.192 5.792 121.016 5.608 121.912 5.608Z" fill="#090328"/>
</svg>
